<svg xmlns="http://www.w3.org/2000/svg" width="100mm" height="17mm" viewBox="0 0 100 17"><path d="M-.264-.014h100.528v17.028H-.264z" style="display:inline;fill:#273859;fill-opacity:1;stroke:#8a94a6;stroke-width:0;stroke-linecap:round;stroke-linejoin:round;stroke-miterlimit:6"/><text xml:space="preserve" x="31.057" y="-25.9" style="font-style:normal;font-variant:normal;font-weight:400;font-stretch:normal;font-size:3.36247px;line-height:1.19;font-family:&quot;TT Neoris Trial&quot;;-inkscape-font-specification:&quot;TT Neoris Trial&quot;;text-align:start;letter-spacing:-.0882649px;writing-mode:lr-tb;direction:ltr;text-anchor:start;white-space:pre;inline-size:50.0861;display:inline;fill:#ff7f2a;fill-opacity:1;stroke:#ff7f2a;stroke-width:0;stroke-linecap:round;stroke-linejoin:round;stroke-miterlimit:6;stroke-opacity:1" transform="translate(-42.16 61.348)scale(1.83878)"><tspan x="31.057" y="-25.9">Batteries &amp; Energy Hub Solutions.</tspan></text><text xml:space="preserve" x="46.092" y="16.497" style="font-style:normal;font-variant:normal;font-weight:700;font-stretch:normal;font-size:5.64444px;line-height:.99;font-family:&quot;TT Neoris Trial Variable&quot;;-inkscape-font-specification:&quot;TT Neoris Trial Variable Bold&quot;;text-align:center;letter-spacing:.662093px;word-spacing:.0240136px;writing-mode:lr-tb;direction:ltr;text-anchor:middle;fill:#fff;fill-opacity:.94902;stroke:#ff7f2a;stroke-width:0;stroke-linecap:round;stroke-linejoin:round;stroke-miterlimit:6" transform="translate(-14.409 -16.145)scale(1.46051)"><tspan x="46.423" y="16.497" style="font-size:5.64444px;stroke-width:0">SOGEN ENERGY</tspan></text><g fill="none" style="display:inline;fill:#ff7f2a;fill-opacity:0;stroke:#ff7f2a;stroke-opacity:1"><path d="M118.914 86.4a4 4 0 0 0-1.22-.15c-.406.01-.815.075-1.222.177-.407.1-.816.24-1.225.398q-.315.122-.63.258-.301.129-.602.19a3.1 3.1 0 0 1-1.218 0 4.5 4.5 0 0 1-1.186-.425m5.041 8.618a4.1 4.1 0 0 0-1.025-.67 5.7 5.7 0 0 0-1.168-.384 10 10 0 0 0-1.27-.184q-.335-.028-.68-.042a3.06 3.06 0 0 1-1.727-.617 4.2 4.2 0 0 1-.874-.908m1.018 10.001a4.1 4.1 0 0 0-.674-1.02 5.7 5.7 0 0 0-.917-.815 10 10 0 0 0-1.09-.672q-.297-.158-.606-.308a3.05 3.05 0 0 1-1.333-1.245 4.2 4.2 0 0 1-.443-1.177m-3.153 9.453c.01-.416-.05-.815-.162-1.2a5.6 5.6 0 0 0-.474-1.117 10 10 0 0 0-.686-1.067q-.196-.27-.405-.537a3 3 0 0 1-.332-.53 3.1 3.1 0 0 1-.306-1.165 4.4 4.4 0 0 1 .108-1.235m-7.195 6.774c.213-.356.356-.734.448-1.123.091-.39.131-.794.136-1.207a10 10 0 0 0-.073-1.265q-.038-.33-.09-.666a3 3 0 0 1-.031-.623c.022-.413.129-.8.302-1.163.174-.364.413-.701.702-1.023m-9.546 2.744c.347-.237.642-.52.895-.835a5.6 5.6 0 0 0 .652-1.04c.185-.373.342-.772.482-1.187q.107-.32.203-.65.092-.315.237-.587a3 3 0 0 1 .773-.942 4.2 4.2 0 0 1 1.09-.63m-9.964-1.402a4.1 4.1 0 0 0 1.154-.41c.358-.188.694-.426 1.013-.696s.622-.574.915-.899q.226-.25.445-.514.21-.252.45-.443a3.1 3.1 0 0 1 1.084-.553c.392-.111.81-.155 1.25-.147m-8.443-5.444c.404.117.812.161 1.22.15.406-.01.815-.075 1.222-.177s.816-.24 1.225-.398q.315-.122.63-.259.302-.128.602-.189a3.1 3.1 0 0 1 1.218 0c.4.078.794.226 1.186.425m-5.041-8.618a4.1 4.1 0 0 0 1.025.67c.368.17.76.294 1.168.384s.833.147 1.27.184q.335.027.68.042.328.015.627.09c.408.101.773.283 1.1.527s.615.55.874.907m-1.018-10c.175.38.404.717.674 1.02.27.302.58.57.917.815.338.244.706.465 1.091.672q.297.159.605.307.294.143.537.33c.332.254.594.563.796.915s.345.748.443 1.178m3.153-9.453c-.01.416.05.815.163 1.2.111.384.275.755.473 1.117s.432.716.686 1.067q.196.269.405.537.199.255.332.529c.184.373.28.765.306 1.166.027.402-.015.814-.107 1.234m7.194-6.773a4 4 0 0 0-.447 1.123 5.5 5.5 0 0 0-.137 1.207c-.005.412.024.836.073 1.265q.038.33.09.666.048.319.031.623c-.022.413-.129.8-.302 1.163-.174.363-.413.7-.702 1.023m9.546-2.744a4.1 4.1 0 0 0-.895.835 5.7 5.7 0 0 0-.652 1.04 10 10 0 0 0-.482 1.187q-.107.319-.203.65-.092.314-.236.587a3.1 3.1 0 0 1-.774.942 4.2 4.2 0 0 1-1.09.63m9.964 1.401a4.1 4.1 0 0 0-1.154.41c-.358.19-.694.426-1.013.697s-.621.574-.915.899q-.225.25-.445.514-.21.252-.45.443a3.1 3.1 0 0 1-1.084.553c-.391.111-.81.155-1.25.147" style="fill:#ff7f2a;fill-opacity:0;stroke:#ff7f2a;stroke-width:2.627;stroke-linecap:round;stroke-dasharray:none;stroke-opacity:1" transform="matrix(.22531 0 0 .22778 -14.11 -11.708)"/><path d="M103.114 86.248a4.986 4.986 0 0 1-4.986 4.986 4.986 4.986 0 0 1-4.986-4.986 4.986 4.986 0 0 1 4.986-4.986 4.986 4.986 0 0 1 4.986 4.986z" style="fill:#ff7f2a;fill-opacity:0;stroke:#ff7f2a;stroke-width:9.98128;stroke-linecap:round;stroke-dasharray:none;stroke-opacity:1" transform="matrix(.22531 0 0 .22778 -14.11 -11.708)"/><path d="M78.104 61.18h40.048a4.763 4.763 0 0 1 4.763 4.763v40.61a4.763 4.763 0 0 1-4.763 4.762H78.104a4.763 4.763 0 0 1-4.763-4.762v-40.61a4.763 4.763 0 0 1 4.763-4.763" style="fill:#ff7f2a;fill-opacity:0;stroke:#ff7f2a;stroke-width:1.65779;stroke-linecap:round;stroke-linejoin:round;stroke-miterlimit:17.8;stroke-dasharray:none;stroke-opacity:1;paint-order:stroke fill markers" transform="matrix(.22531 0 0 .22778 -14.11 -11.708)"/></g><text xml:space="preserve" x="31.057" y="-25.9" style="font-style:normal;font-variant:normal;font-weight:400;font-stretch:normal;font-size:3.36247px;line-height:1.19;font-family:&quot;TT Neoris Trial&quot;;-inkscape-font-specification:&quot;TT Neoris Trial&quot;;text-align:start;letter-spacing:-.0882649px;writing-mode:lr-tb;direction:ltr;text-anchor:start;white-space:pre;inline-size:50.0861;display:inline;fill:#ff7f2a;fill-opacity:1;stroke:#ff7f2a;stroke-width:0;stroke-linecap:round;stroke-linejoin:round;stroke-miterlimit:6;stroke-opacity:1" transform="translate(-42.922 90.543)scale(1.83878)"><tspan x="31.057" y="-25.9">Batteries &amp; Energy Hub Solutions.</tspan></text><text xml:space="preserve" x="52.148" y="37.144" style="font-style:normal;font-variant:normal;font-weight:700;font-stretch:normal;font-size:8.24379px;line-height:.99;font-family:&quot;TT Neoris Trial Variable&quot;;-inkscape-font-specification:&quot;TT Neoris Trial Variable Bold&quot;;text-align:center;letter-spacing:.966997px;word-spacing:.0350722px;writing-mode:lr-tb;direction:ltr;text-anchor:middle;fill:#273859;fill-opacity:1;stroke:#ff7f2a;stroke-width:0;stroke-linecap:round;stroke-linejoin:round;stroke-miterlimit:6"><tspan x="52.631" y="37.144" style="font-size:8.24379px;stroke-width:0;fill:#273859;fill-opacity:1">SOGEN ENERGY</tspan></text><g fill="none" style="display:inline;fill:#ff7f2a;fill-opacity:0;stroke:#ff7f2a;stroke-opacity:1"><path d="M118.914 86.4a4 4 0 0 0-1.22-.15c-.406.01-.815.075-1.222.177-.407.1-.816.24-1.225.398q-.315.122-.63.258-.301.129-.602.19a3.1 3.1 0 0 1-1.218 0 4.5 4.5 0 0 1-1.186-.425m5.041 8.618a4.1 4.1 0 0 0-1.025-.67 5.7 5.7 0 0 0-1.168-.384 10 10 0 0 0-1.27-.184q-.335-.028-.68-.042a3.06 3.06 0 0 1-1.727-.617 4.2 4.2 0 0 1-.874-.908m1.018 10.001a4.1 4.1 0 0 0-.674-1.02 5.7 5.7 0 0 0-.917-.815 10 10 0 0 0-1.09-.672q-.297-.158-.606-.308a3.05 3.05 0 0 1-1.333-1.245 4.2 4.2 0 0 1-.443-1.177m-3.153 9.453c.01-.416-.05-.815-.162-1.2a5.6 5.6 0 0 0-.474-1.117 10 10 0 0 0-.686-1.067q-.196-.27-.405-.537a3 3 0 0 1-.332-.53 3.1 3.1 0 0 1-.306-1.165 4.4 4.4 0 0 1 .108-1.235m-7.195 6.774c.213-.356.356-.734.448-1.123.091-.39.131-.794.136-1.207a10 10 0 0 0-.073-1.265q-.038-.33-.09-.666a3 3 0 0 1-.031-.623c.022-.413.129-.8.302-1.163.174-.364.413-.701.702-1.023m-9.546 2.744c.347-.237.642-.52.895-.835a5.6 5.6 0 0 0 .652-1.04c.185-.373.342-.772.482-1.187q.107-.32.203-.65.092-.315.237-.587a3 3 0 0 1 .773-.942 4.2 4.2 0 0 1 1.09-.63m-9.964-1.402a4.1 4.1 0 0 0 1.154-.41c.358-.188.694-.426 1.013-.696s.622-.574.915-.899q.226-.25.445-.514.21-.252.45-.443a3.1 3.1 0 0 1 1.084-.553c.392-.111.81-.155 1.25-.147m-8.443-5.444c.404.117.812.161 1.22.15.406-.01.815-.075 1.222-.177s.816-.24 1.225-.398q.315-.122.63-.259.302-.128.602-.189a3.1 3.1 0 0 1 1.218 0c.4.078.794.226 1.186.425m-5.041-8.618a4.1 4.1 0 0 0 1.025.67c.368.17.76.294 1.168.384s.833.147 1.27.184q.335.027.68.042.328.015.627.09c.408.101.773.283 1.1.527s.615.55.874.907m-1.018-10c.175.38.404.717.674 1.02.27.302.58.57.917.815.338.244.706.465 1.091.672q.297.159.605.307.294.143.537.33c.332.254.594.563.796.915s.345.748.443 1.178m3.153-9.453c-.01.416.05.815.163 1.2.111.384.275.755.473 1.117s.432.716.686 1.067q.196.269.405.537.199.255.332.529c.184.373.28.765.306 1.166.027.402-.015.814-.107 1.234m7.194-6.773a4 4 0 0 0-.447 1.123 5.5 5.5 0 0 0-.137 1.207c-.005.412.024.836.073 1.265q.038.33.09.666.048.319.031.623c-.022.413-.129.8-.302 1.163-.174.363-.413.7-.702 1.023m9.546-2.744a4.1 4.1 0 0 0-.895.835 5.7 5.7 0 0 0-.652 1.04 10 10 0 0 0-.482 1.187q-.107.319-.203.65-.092.314-.236.587a3.1 3.1 0 0 1-.774.942 4.2 4.2 0 0 1-1.09.63m9.964 1.401a4.1 4.1 0 0 0-1.154.41c-.358.19-.694.426-1.013.697s-.621.574-.915.899q-.225.25-.445.514-.21.252-.45.443a3.1 3.1 0 0 1-1.084.553c-.391.111-.81.155-1.25.147" style="fill:#ff7f2a;fill-opacity:0;stroke:#ff7f2a;stroke-width:2.627;stroke-linecap:round;stroke-dasharray:none;stroke-opacity:1" transform="matrix(.22531 0 0 .22778 -14.87 17.487)"/><path d="M103.114 86.248a4.986 4.986 0 0 1-4.986 4.986 4.986 4.986 0 0 1-4.986-4.986 4.986 4.986 0 0 1 4.986-4.986 4.986 4.986 0 0 1 4.986 4.986z" style="fill:#ff7f2a;fill-opacity:0;stroke:#ff7f2a;stroke-width:9.98128;stroke-linecap:round;stroke-dasharray:none;stroke-opacity:1" transform="matrix(.22531 0 0 .22778 -14.87 17.487)"/><path d="M78.104 61.18h40.048a4.763 4.763 0 0 1 4.763 4.763v40.61a4.763 4.763 0 0 1-4.763 4.762H78.104a4.763 4.763 0 0 1-4.763-4.762v-40.61a4.763 4.763 0 0 1 4.763-4.763" style="fill:#ff7f2a;fill-opacity:0;stroke:#ff7f2a;stroke-width:1.65779;stroke-linecap:round;stroke-linejoin:round;stroke-miterlimit:17.8;stroke-dasharray:none;stroke-opacity:1;paint-order:stroke fill markers" transform="matrix(.22531 0 0 .22778 -14.87 17.487)"/></g></svg>